<svg width="21" height="32" viewBox="0 0 21 32" fill="none" xmlns="http://www.w3.org/2000/svg">
<path d="M1.16785 11.2349C-0.0546922 13.6032 -0.328944 16.3389 0.399698 18.8977C1.12834 21.4565 2.80645 23.6506 5.09999 25.0435L7.25749 20.8617C6.07871 20.0349 5.24053 18.8172 4.89599 17.431C4.55144 16.0448 4.72353 14.5824 5.38081 13.3111C6.03809 12.0397 7.13673 11.044 8.47613 10.5059C9.81554 9.96772 11.3064 9.92299 12.6764 10.3798L18.087 0L11.5893 5.503C9.47379 5.33198 7.35455 5.7856 5.50089 6.80623C3.64724 7.82686 2.14289 9.36841 1.17902 11.2349" fill="white"/>
<path d="M19.7022 20.8027C20.924 18.4281 21.1983 15.6845 20.4704 13.1185C19.7425 10.5525 18.0659 8.35228 15.7745 6.95605L13.6501 11.0802C14.8275 11.9093 15.6648 13.1303 16.0089 14.5204C16.3531 15.9105 16.1812 17.3768 15.5247 18.6517C14.8681 19.9266 13.7707 20.925 12.4328 21.4647C11.0949 22.0043 9.60578 22.0491 8.23727 21.591V21.591L2.78259 31.9995L9.20315 26.5339C11.3307 26.7251 13.4673 26.2806 15.3376 25.2577C17.2079 24.2347 18.7261 22.6802 19.6966 20.7944" fill="white"/>
</svg>
